# xmcd
#
# Track frame offsets: 
#        150
#        13439
#        30699
#        44493
#        56545
#        74325
#        88306
#        101331
#        114596
#        124570
#        139320
#        154609
#        168978
#
# Disc length: 2424 seconds
#
# Revision: 0
# Processed by: cddbd v1.5.1PL0 Copyright (c) Steve Scherf et al.
# Submitted via: ExactAudioCopy v0.95a4
#
DISCID=b309760d
DTITLE=Mighty Fine Wine - Vino Vidi Vici
DYEAR=2004
DGENRE=Blues
TTITLE0=Junk
TTITLE1=Moral Breakdown
TTITLE2=Skult
TTITLE3=Jesus
TTITLE4=Two Of A Kind
TTITLE5=Jack Ripper
TTITLE6=50 Cents
TTITLE7=Luck Of The Draw
TTITLE8=Big Trade Off
TTITLE9=I Am Somebody
TTITLE10=Rollie Fingers
TTITLE11=Dedicated
TTITLE12=Where She Wants
EXTD=
EXTT0=
EXTT1=
EXTT2=
EXTT3=
EXTT4=
EXTT5=
EXTT6=
EXTT7=
EXTT8=
EXTT9=
EXTT10=
EXTT11=
EXTT12=
PLAYORDER=
